<svg id="add_8_" data-name="add (8)" xmlns="http://www.w3.org/2000/svg" width="17.799" height="17.799" viewBox="0 0 17.799 17.799">
  <g id="Group_2583" data-name="Group 2583">
    <g id="Group_2582" data-name="Group 2582">
      <path id="Path_3371" data-name="Path 3371" d="M8.9,0a8.9,8.9,0,1,0,8.9,8.9A8.909,8.909,0,0,0,8.9,0Zm0,16.421A7.521,7.521,0,1,1,16.421,8.9,7.53,7.53,0,0,1,8.9,16.421Z" fill="#116bef"/>
    </g>
  </g>
  <g id="Group_2585" data-name="Group 2585" transform="translate(4.763 4.701)">
    <g id="Group_2584" data-name="Group 2584">
      <path id="Path_3372" data-name="Path 3372" d="M144.6,138.685h-2.757v-2.757a.689.689,0,1,0-1.379,0v2.757h-2.757a.689.689,0,0,0,0,1.379h2.757v2.757a.689.689,0,1,0,1.379,0v-2.757H144.6a.689.689,0,1,0,0-1.379Z" transform="translate(-137.022 -135.238)" fill="#116bef"/>
    </g>
  </g>
</svg>
