<svg xmlns="http://www.w3.org/2000/svg" width="15.557" height="15.559" viewBox="0 0 15.557 15.559">
  <path id="Path_3374" data-name="Path 3374" d="M144.2,129.21a.963.963,0,0,0-1.367,0l-6.127,6.127-6.127-6.127a.967.967,0,0,0-1.367,1.367l6.127,6.127-6.127,6.127a.97.97,0,0,0,.68,1.653.943.943,0,0,0,.68-.286l6.127-6.127,6.127,6.127a.973.973,0,0,0,.68.286.931.931,0,0,0,.68-.286.963.963,0,0,0,0-1.367l-6.113-6.127,6.127-6.127A.963.963,0,0,0,144.2,129.21Z" transform="translate(-128.925 -128.925)" fill="#919191"/>
</svg>
