<svg xmlns="http://www.w3.org/2000/svg" width="29" height="29" viewBox="0 0 29 29">
  <g id="Group_3332" data-name="Group 3332" transform="translate(-453 -88)">
    <circle id="Ellipse_553" data-name="Ellipse 553" cx="14.5" cy="14.5" r="14.5" transform="translate(453 88)" fill="#272848"/>
    <path id="Path_3676" data-name="Path 3676" d="M40.945,7.893V.546A.536.536,0,0,1,41.471,0a7.367,7.367,0,0,1,7.367,7.367.536.536,0,0,1-.546.526ZM32,8.945a7.893,7.893,0,0,1,6.808-7.817.5.5,0,0,1,.559.506V9.471l5.147,5.147a.5.5,0,0,1-.049.76A7.891,7.891,0,0,1,32,8.945Zm17.311.526a.5.5,0,0,1,.506.559,7.866,7.866,0,0,1-2.43,4.68.5.5,0,0,1-.7-.023L41.471,9.471Z" transform="translate(427 94)" fill="#bac7e2"/>
  </g>
</svg>
