<svg xmlns="http://www.w3.org/2000/svg" width="29" height="29" viewBox="0 0 29 29">
  <g id="Group_3333" data-name="Group 3333" transform="translate(-223 -87)">
    <circle id="Ellipse_552" data-name="Ellipse 552" cx="14.5" cy="14.5" r="14.5" transform="translate(223 87)" fill="#272848"/>
    <path id="Path_3675" data-name="Path 3675" d="M1.75,32.875a.875.875,0,0,0-1.75,0v9.188A2.187,2.187,0,0,0,2.188,44.25H13.125a.875.875,0,0,0,0-1.75H2.188a.439.439,0,0,1-.437-.437Zm11.118,2.368A.876.876,0,0,0,11.629,34L8.75,36.886l-1.57-1.57a.876.876,0,0,0-1.239,0L2.879,38.379a.876.876,0,1,0,1.239,1.239l2.445-2.442,1.57,1.57a.876.876,0,0,0,1.239,0l3.5-3.5Z" transform="translate(231 63)" fill="#9dcba7"/>
  </g>
</svg>
