<svg xmlns="http://www.w3.org/2000/svg" width="22.523" height="27.732" viewBox="0 0 22.523 27.732">
  <g id="delete_9_" data-name="delete (9)" transform="translate(0.003 0.001)">
    <path id="Path_3429" data-name="Path 3429" d="M223.048,154.7a.649.649,0,0,0-.649.649v12.275a.649.649,0,1,0,1.3,0V155.353A.649.649,0,0,0,223.048,154.7Zm0,0" transform="translate(-207.958 -144.657)" fill="#ff4d4d"/>
    <path id="Path_3430" data-name="Path 3430" d="M105.048,154.7a.649.649,0,0,0-.649.649v12.275a.649.649,0,1,0,1.3,0V155.353A.649.649,0,0,0,105.048,154.7Zm0,0" transform="translate(-97.621 -144.657)" fill="#ff4d4d"/>
    <path id="Path_3431" data-name="Path 3431" d="M1.841,8.255v16a3.583,3.583,0,0,0,.953,2.471,3.2,3.2,0,0,0,2.321,1H17.4a3.2,3.2,0,0,0,2.321-1,3.583,3.583,0,0,0,.953-2.471v-16a2.481,2.481,0,0,0-.637-4.879H16.714V2.564A2.551,2.551,0,0,0,14.142,0H8.375A2.551,2.551,0,0,0,5.8,2.564v.812H2.478a2.481,2.481,0,0,0-.637,4.879ZM17.4,26.432H5.115A2.057,2.057,0,0,1,3.14,24.256V8.312H19.377V24.256A2.057,2.057,0,0,1,17.4,26.432ZM7.1,2.564A1.251,1.251,0,0,1,8.375,1.3h5.767a1.251,1.251,0,0,1,1.273,1.266v.812H7.1ZM2.478,4.675H20.039a1.169,1.169,0,0,1,0,2.338H2.478a1.169,1.169,0,0,1,0-2.338Zm0,0" transform="translate(0 0)" fill="#ff4d4d"/>
    <path id="Path_3432" data-name="Path 3432" d="M164.048,154.7a.649.649,0,0,0-.649.649v12.275a.649.649,0,1,0,1.3,0V155.353A.649.649,0,0,0,164.048,154.7Zm0,0" transform="translate(-152.789 -144.657)" fill="#ff4d4d"/>
  </g>
</svg>
