<svg id="checked_4_" data-name="checked (4)" xmlns="http://www.w3.org/2000/svg" width="29.26" height="29.26" viewBox="0 0 29.26 29.26">
  <g id="Group_2577" data-name="Group 2577" transform="translate(6.947 3.676)">
    <g id="Group_2576" data-name="Group 2576">
      <path id="Path_3415" data-name="Path 3415" d="M143.044,64.651a1.1,1.1,0,0,0-1.559,0L128.255,77.844l-4.773-5.184a1.1,1.1,0,1,0-1.623,1.494l5.551,6.028a1.1,1.1,0,0,0,.788.355h.024a1.1,1.1,0,0,0,.779-.322l14.042-14A1.1,1.1,0,0,0,143.044,64.651Z" transform="translate(-121.568 -64.327)" fill="#4caf50"/>
    </g>
  </g>
  <g id="Group_2579" data-name="Group 2579">
    <g id="Group_2578" data-name="Group 2578">
      <path id="Path_3416" data-name="Path 3416" d="M28.157,13.527a1.1,1.1,0,0,0-1.1,1.1A12.424,12.424,0,1,1,14.63,2.206,1.1,1.1,0,1,0,14.63,0,14.63,14.63,0,1,0,29.26,14.63,1.1,1.1,0,0,0,28.157,13.527Z" fill="#4caf50"/>
    </g>
  </g>
</svg>
