<svg id="clients-gray" xmlns="http://www.w3.org/2000/svg" width="14.941" height="17" viewBox="0 0 14.941 17">
  <g id="Group_2879" data-name="Group 2879" transform="translate(2.988)">
    <g id="Group_2878" data-name="Group 2878">
      <path id="Path_3450" data-name="Path 3450" d="M125.482,0a4.482,4.482,0,1,0,4.482,4.482A4.488,4.488,0,0,0,125.482,0Z" transform="translate(-121)" fill="#acadc4"/>
    </g>
  </g>
  <g id="Group_2881" data-name="Group 2881" transform="translate(0 9.961)">
    <g id="Group_2880" data-name="Group 2880">
      <path id="Path_3451" data-name="Path 3451" d="M44.048,301.932A6.39,6.39,0,0,0,39.467,300H37.475a6.39,6.39,0,0,0-4.581,1.932A6.532,6.532,0,0,0,31,306.541a.5.5,0,0,0,.5.5H45.443a.5.5,0,0,0,.5-.5A6.532,6.532,0,0,0,44.048,301.932Z" transform="translate(-31 -300)" fill="#acadc4"/>
    </g>
  </g>
</svg>
