<svg xmlns="http://www.w3.org/2000/svg" width="17.492" height="18.871" viewBox="0 0 17.492 18.871">
  <g id="logout_3_" data-name="logout (3)" transform="translate(-17.219)">
    <g id="Group_2224" data-name="Group 2224" transform="translate(17.219)">
      <path id="Path_2669" data-name="Path 2669" d="M25.645,17.79H20.723A2.426,2.426,0,0,1,18.3,15.367V3.5a2.426,2.426,0,0,1,2.423-2.423h5a.541.541,0,0,0,0-1.081h-5a3.508,3.508,0,0,0-3.5,3.5V15.367a3.508,3.508,0,0,0,3.5,3.5h4.922a.541.541,0,0,0,0-1.081Z" transform="translate(-17.219)" fill="#818098"/>
      <path id="Path_2670" data-name="Path 2670" d="M133.715,139.92l-3.436-3.436a.541.541,0,0,0-.765.765l2.515,2.515H121.06a.541.541,0,1,0,0,1.081h10.969l-2.515,2.515a.543.543,0,0,0,.38.925.528.528,0,0,0,.38-.16l3.436-3.436A.54.54,0,0,0,133.715,139.92Z" transform="translate(-116.382 -130.865)" fill="#818098"/>
    </g>
  </g>
</svg>
