<svg id="invoice-gray" xmlns="http://www.w3.org/2000/svg" width="14.263" height="19.018" viewBox="0 0 14.263 19.018">
  <g id="Group_2885" data-name="Group 2885">
    <path id="Path_3456" data-name="Path 3456" d="M78.147,4.078,74.186.117A.4.4,0,0,0,73.9,0h-8.32A1.587,1.587,0,0,0,64,1.585V17.433a1.587,1.587,0,0,0,1.585,1.585H76.678a1.587,1.587,0,0,0,1.585-1.585V4.358A.4.4,0,0,0,78.147,4.078ZM67.566,5.547a1.186,1.186,0,0,1-.4-2.3V3.17a.4.4,0,1,1,.792,0h.4a.4.4,0,0,1,0,.792h-.792a.4.4,0,0,0,0,.792,1.186,1.186,0,0,1,.4,2.3v.073a.4.4,0,1,1-.792,0h-.4a.4.4,0,0,1,0-.792h.792a.4.4,0,1,0,0-.792ZM71.528,16.64H66.773a.4.4,0,0,1,0-.792h4.754a.4.4,0,1,1,0,.792Zm3.962-2.377H66.773a.4.4,0,0,1,0-.792H75.49a.4.4,0,1,1,0,.792Zm0-2.377H66.773a.4.4,0,0,1,0-.792H75.49a.4.4,0,1,1,0,.792Zm0-2.377H66.773a.4.4,0,0,1,0-.792H75.49a.4.4,0,1,1,0,.792Zm0-2.377H70.735a.4.4,0,0,1,0-.792H75.49a.4.4,0,0,1,0,.792Zm-.4-3.17A.793.793,0,0,1,74.3,3.17V1.353l2.609,2.609Z" transform="translate(-64)" fill="#6d71f9"/>
  </g>
</svg>
