<svg enable-background="new 0 0 100 100" height="26" viewBox="0 0 100 100" width="26" xmlns="http://www.w3.org/2000/svg"><g fill="#6d71f9"><path d="m78.8 62.1-3.6-1.7c-.5-.3-1.2-.3-1.7 0l-21.5 10.2c-1.2.6-2.7.6-3.9 0l-21.6-10.2c-.5-.3-1.2-.3-1.7 0l-3.6 1.7c-1.6.8-1.6 2.9 0 3.7l26.8 12.7c1.2.6 2.7.6 3.9 0l26.8-12.7c1.7-.8 1.7-3 .1-3.7z"/><path d="m78.8 48.1-3.7-1.7c-.5-.3-1.2-.3-1.7 0l-21.4 10.2c-1.2.6-2.7.6-3.9 0l-21.5-10.2c-.5-.3-1.2-.3-1.7 0l-3.7 1.7c-1.6.8-1.6 2.9 0 3.7l26.8 12.8c1.2.6 2.7.6 3.9 0l26.8-12.7c1.7-.8 1.7-3 .1-3.8z"/><path d="m21.2 37.8 26.8 12.7c1.2.6 2.7.6 3.9 0l26.8-12.7c1.6-.8 1.6-2.9 0-3.7l-26.8-12.7c-1.2-.6-2.7-.6-3.9 0l-26.8 12.8c-1.6.7-1.6 2.9 0 3.6z"/></g></svg>
