<svg xmlns="http://www.w3.org/2000/svg" width="20" height="17.778" viewBox="0 0 20 17.778">
  <path id="Path_3678" data-name="Path 3678" d="M8.611,0H7.222A1.667,1.667,0,0,0,5.556,1.667V5.556A2.224,2.224,0,0,0,7.778,7.778h4.444a2.224,2.224,0,0,0,2.222-2.222V1.667A1.667,1.667,0,0,0,12.778,0H11.389V2.778a.557.557,0,0,1-.556.556H9.167a.557.557,0,0,1-.556-.556ZM2.222,8.889A2.224,2.224,0,0,0,0,11.111v4.444a2.224,2.224,0,0,0,2.222,2.222H7.778A2.224,2.224,0,0,0,10,15.556V11.111A2.224,2.224,0,0,0,7.778,8.889H6.389v2.778a.557.557,0,0,1-.556.556H4.167a.557.557,0,0,1-.556-.556V8.889Zm10,8.889h5.556A2.224,2.224,0,0,0,20,15.556V11.111a2.224,2.224,0,0,0-2.222-2.222H16.389v2.778a.557.557,0,0,1-.556.556H14.167a.557.557,0,0,1-.556-.556V8.889H12.222a2.2,2.2,0,0,0-1.378.479,2.781,2.781,0,0,1,.267,1.188v5.556a2.781,2.781,0,0,1-.267,1.188A2.2,2.2,0,0,0,12.222,17.778Z" fill="#acadc4"/>
</svg>
