<svg xmlns="http://www.w3.org/2000/svg" width="18" height="18" viewBox="0 0 18 18">
  <path id="gift-solid" d="M5.344,0h.077A3.171,3.171,0,0,1,8.153,1.563L9,3l.847-1.442A3.171,3.171,0,0,1,12.579,0h.077A3.094,3.094,0,0,1,15.75,3.094,3.2,3.2,0,0,1,15.412,4.5h1.463A1.124,1.124,0,0,1,18,5.625v2.25A1.124,1.124,0,0,1,16.875,9H1.125A1.124,1.124,0,0,1,0,7.875V5.625A1.124,1.124,0,0,1,1.125,4.5H2.588A3.179,3.179,0,0,1,2.25,3.094,3.094,3.094,0,0,1,5.344,0ZM6.7,2.418a1.483,1.483,0,0,0-1.276-.731H5.344a1.406,1.406,0,0,0,0,2.813H7.921Zm5.959-.731h-.077a1.483,1.483,0,0,0-1.276.731L10.079,4.5h2.577a1.406,1.406,0,0,0,0-2.812ZM1.125,10.125h6.75V18H2.813a1.688,1.688,0,0,1-1.687-1.687Zm9,7.875V10.125h6.75v6.188A1.688,1.688,0,0,1,15.188,18Z" fill="#acadc4"/>
</svg>
