<svg id="services-gray" xmlns="http://www.w3.org/2000/svg" width="17" height="19.342" viewBox="0 0 17 19.342">
  <path id="Path_3457" data-name="Path 3457" d="M47.433,230H45.167a.567.567,0,1,0,0,1.133h.567v2.833a.189.189,0,0,1-.189.189h-.964a1.318,1.318,0,0,0-.925-.378H35.344a1.318,1.318,0,0,0-.925.378h-.964a.189.189,0,0,1-.189-.189v-2.833h.567a.567.567,0,1,0,0-1.133H31.567a.567.567,0,0,0,0,1.133h.567v2.833a1.324,1.324,0,0,0,1.322,1.322h.567v.189a.567.567,0,0,0,.567.567H40.4l2.478,2.478a.567.567,0,0,0,.8-.8L42,236.044h2.41a.567.567,0,0,0,.567-.567v-.189h.567a1.324,1.324,0,0,0,1.322-1.322v-2.833h.567a.567.567,0,1,0,0-1.133Z" transform="translate(-31 -221.311)" fill="#acadc4"/>
  <path id="Path_3458" data-name="Path 3458" d="M158.367,422.342h-1.983V420H153.55v2.342h-1.983a.567.567,0,1,0,0,1.133h6.8a.567.567,0,1,0,0-1.133Z" transform="translate(-146.467 -404.133)" fill="#acadc4"/>
  <path id="Path_3459" data-name="Path 3459" d="M149.689,5.856a1.7,1.7,0,0,0-1.7-1.7h-2.078V2.833h1.7a.567.567,0,0,0,.567-.567V1.322A1.322,1.322,0,0,0,146.856,0h-3.022a1.322,1.322,0,0,0-1.322,1.322v.944a.567.567,0,0,0,.567.567h1.7V4.156H142.7a1.7,1.7,0,0,0-1.7,1.7v5.478h8.689Z" transform="translate(-136.844)" fill="#acadc4"/>
</svg>
