<svg xmlns="http://www.w3.org/2000/svg" width="24" height="15.333" viewBox="0 0 24 15.333">
  <g id="menu_6_" data-name="menu (6)" transform="translate(0 -1)">
    <path id="Path_2616" data-name="Path 2616" d="M23,124.668H1a1,1,0,0,1,0-2H23a1,1,0,0,1,0,2Zm0,0" transform="translate(0 -115.001)"/>
    <path id="Path_2617" data-name="Path 2617" d="M23,2H1A1,1,0,0,1,1,0H23a1,1,0,0,1,0,2Zm0,0" transform="translate(0 1)"/>
    <path id="Path_2618" data-name="Path 2618" d="M23,247.332H1a1,1,0,0,1,0-2H23a1,1,0,0,1,0,2Zm0,0" transform="translate(0 -230.999)"/>
  </g>
</svg>
