<svg xmlns="http://www.w3.org/2000/svg" width="15" height="20" viewBox="0 0 15 20">
  <path id="Map_Marker_Alt_Icon_-_Regular___Font_Awesome-33" data-name="Map Marker Alt Icon - Regular _ Font Awesome-33" d="M7.5,3.75A3.75,3.75,0,1,0,11.25,7.5,3.754,3.754,0,0,0,7.5,3.75ZM7.5,10A2.5,2.5,0,1,1,10,7.5,2.5,2.5,0,0,1,7.5,10Zm0-10A7.5,7.5,0,0,0,0,7.5c0,3.024,1.054,3.868,6.729,12.1a.938.938,0,0,0,1.542,0C13.946,11.368,15,10.524,15,7.5A7.5,7.5,0,0,0,7.5,0Zm0,18.513C2.059,10.644,1.25,10.019,1.25,7.5A6.25,6.25,0,0,1,11.919,3.081,6.209,6.209,0,0,1,13.75,7.5C13.75,10.019,12.942,10.643,7.5,18.513Z" fill="#a6a9b4"/>
</svg>
